<svg width="24" height="24" viewBox="0 0 24 24" fill="none" xmlns="http://www.w3.org/2000/svg">
<path fill-rule="evenodd" clip-rule="evenodd" d="M18 8C19.6523 8 21 9.34772 21 11V21C21 22.6523 19.6523 24 18 24H6C4.34772 24 3 22.6523 3 21V11C3 9.34772 4.34772 8 6 8V7C6 3.68772 8.68772 1 12 1C15.3123 1 18 3.68772 18 7V8ZM18 10H16.1V7C16.1 4.73772 14.2623 2.9 12 2.9C9.73772 2.9 7.9 4.73772 7.9 7V10H6C5.45228 10 5 10.4523 5 11V21C5 21.5477 5.45228 22 6 22H18C18.5477 22 19 21.5477 19 21V11C19 10.4523 18.5477 10 18 10ZM16 7V10H8V7C8 4.79228 9.79228 3 12 3C14.2077 3 16 4.79228 16 7ZM12 4.9C13.1577 4.9 14.1 5.84228 14.1 7V8H9.9V7C9.9 5.84228 10.8423 4.9 12 4.9ZM10 16C10 17.1 10.9 18 12 18C13.1 18 14 17.1 14 16C14 14.9 13.1 14 12 14C10.9 14 10 14.9 10 16Z" fill="#C2D1D9"/>
<mask id="mask0" mask-type="alpha" maskUnits="userSpaceOnUse" x="3" y="1" width="18" height="23">
<path fill-rule="evenodd" clip-rule="evenodd" d="M18 8C19.6523 8 21 9.34772 21 11V21C21 22.6523 19.6523 24 18 24H6C4.34772 24 3 22.6523 3 21V11C3 9.34772 4.34772 8 6 8V7C6 3.68772 8.68772 1 12 1C15.3123 1 18 3.68772 18 7V8ZM18 10H16.1V7C16.1 4.73772 14.2623 2.9 12 2.9C9.73772 2.9 7.9 4.73772 7.9 7V10H6C5.45228 10 5 10.4523 5 11V21C5 21.5477 5.45228 22 6 22H18C18.5477 22 19 21.5477 19 21V11C19 10.4523 18.5477 10 18 10ZM16 7V10H8V7C8 4.79228 9.79228 3 12 3C14.2077 3 16 4.79228 16 7ZM12 4.9C13.1577 4.9 14.1 5.84228 14.1 7V8H9.9V7C9.9 5.84228 10.8423 4.9 12 4.9ZM10 16C10 17.1 10.9 18 12 18C13.1 18 14 17.1 14 16C14 14.9 13.1 14 12 14C10.9 14 10 14.9 10 16Z" fill="white"/>
</mask>
<g mask="url(#mask0)">
<rect width="24" height="24" fill="#C2D1D9"/>
</g>
</svg>
