<?xml version="1.0" encoding="utf-8" ?>
<svg xmlns="http://www.w3.org/2000/svg" xmlns:xlink="http://www.w3.org/1999/xlink" width="25" height="24">
	<defs>
		<clipPath id="clip_0">
			<rect x="-1098" y="-327" width="1440" height="1191" clip-rule="evenodd"/>
		</clipPath>
	</defs>
	<g clip-path="url(#clip_0)">
		<path fill="rgb(255,255,255)" stroke="none" d="M18.5046 7.115C18.894 6.72564 18.894 6.09436 18.5046 5.705C18.1152 5.31564 17.484 5.31564 17.0946 5.705L12.2096 10.59L7.32459 5.705C6.93523 5.31564 6.30396 5.31564 5.91459 5.705C5.52523 6.09436 5.52523 6.72564 5.91459 7.115L10.7996 12L5.91459 16.885C5.52523 17.2744 5.52523 17.9056 5.91459 18.295C6.30396 18.6844 6.93523 18.6844 7.32459 18.295L12.2096 13.41L17.0946 18.295C17.484 18.6844 18.1152 18.6844 18.5046 18.295C18.894 17.9056 18.894 17.2744 18.5046 16.885L13.6196 12L18.5046 7.115L18.5046 7.115Z"/>
	</g>

</svg>