<?xml version="1.0" encoding="utf-8" ?>
<svg xmlns="http://www.w3.org/2000/svg" xmlns:xlink="http://www.w3.org/1999/xlink" width="212" height="42">
	<defs>
		<clipPath id="clip_0">
			<rect x="-614" y="-10" width="1440" height="845" clip-rule="evenodd"/>
		</clipPath>
	</defs>
	<g clip-path="url(#clip_0)">
		<path fill="rgb(0,0,0)" stroke="none" transform="translate(0 25.2375)" d="M0 0L210.849 0.001"/>
	</g>
	<defs>
		<clipPath id="clip_1">
			<rect x="-614" y="-10" width="1440" height="845" clip-rule="evenodd"/>
		</clipPath>
	</defs>
	<g clip-path="url(#clip_1)">
		<path fill="none" stroke="rgb(251,176,64)" stroke-width="1" stroke-linecap="round" stroke-linejoin="round" transform="translate(0 25.2375)" d="M0 0L210.849 0.001"/>
	</g>
	<defs>
		<clipPath id="clip_2">
			<rect x="-614" y="-10" width="1440" height="845" clip-rule="evenodd"/>
		</clipPath>
	</defs>
	<g clip-path="url(#clip_2)">
		<path fill="rgb(255,255,255)" stroke="none" d="M11.7923 6.14619C10.5423 5.30279 8.74254 4.88109 6.39308 4.88109C5.74548 4.88109 5.00751 4.91122 4.17917 4.97146C3.3659 5.0317 2.57522 5.13713 1.80713 5.28773L1.80713 20.7173L5.33131 20.7173L5.33131 15.0018L7.07081 15.0018C7.37202 15.3633 7.67324 15.7699 7.97445 16.2217C8.27566 16.6585 8.57687 17.1254 8.87808 17.6224C9.19436 18.1194 9.49557 18.6314 9.78172 19.1586C10.0829 19.6857 10.3766 20.2053 10.6628 20.7173L14.6162 20.7173C14.3451 20.145 14.0514 19.5652 13.7351 18.9778C13.4189 18.3754 13.0875 17.8031 12.7411 17.2609C12.4098 16.7037 12.0709 16.1766 11.7245 15.6796C11.3781 15.1675 11.0468 14.7157 10.7305 14.3241C11.6794 13.9325 12.4023 13.3979 12.8993 12.7201C13.4113 12.0274 13.6674 11.1312 13.6674 10.0318C13.6674 8.26973 13.0423 6.97452 11.7923 6.14619ZM5.89608 7.90828C6.10693 7.89322 6.34037 7.88569 6.5964 7.88569C7.72595 7.88569 8.57687 8.05135 9.14918 8.38269C9.73654 8.69896 10.0302 9.24114 10.0302 10.0092C10.0302 10.8074 9.74407 11.3722 9.17177 11.7036C8.59946 12.0349 7.65065 12.2006 6.32531 12.2006L5.33131 12.2006L5.33131 7.95346C5.51204 7.9384 5.7003 7.92334 5.89608 7.90828Z" fill-rule="evenodd"/>
	</g>
	<defs>
		<clipPath id="clip_3">
			<rect x="-614" y="-10" width="1440" height="845" clip-rule="evenodd"/>
		</clipPath>
	</defs>
	<g clip-path="url(#clip_3)">
		<path fill="rgb(255,255,255)" stroke="none" d="M15.62 20.7173L15.62 5.06182L26.1926 5.06182L26.1926 8.02123L19.1442 8.02123L19.1442 11.0936L25.4019 11.0936L25.4019 13.9852L19.1442 13.9852L19.1442 17.7579L26.7122 17.7579L26.7122 20.7173L15.62 20.7173L15.62 20.7173Z"/>
	</g>
	<defs>
		<clipPath id="clip_4">
			<rect x="-614" y="-10" width="1440" height="845" clip-rule="evenodd"/>
		</clipPath>
	</defs>
	<g clip-path="url(#clip_4)">
		<path fill="rgb(255,255,255)" stroke="none" d="M32.3348 18.029C32.8318 18.029 33.2385 17.9914 33.5547 17.9161C33.8861 17.8257 34.1496 17.7127 34.3454 17.5772C34.5412 17.4266 34.6768 17.2534 34.7521 17.0576C34.8274 16.8618 34.865 16.6434 34.865 16.4025C34.865 15.8904 34.624 15.4687 34.1421 15.1374C33.6602 14.791 32.8318 14.422 31.6571 14.0304C31.145 13.8497 30.633 13.6464 30.1209 13.4205C29.6089 13.1795 29.1495 12.8858 28.7429 12.5394C28.3362 12.178 28.0049 11.7487 27.7489 11.2517C27.4928 10.7397 27.3648 10.1222 27.3648 9.39928C27.3648 8.67637 27.5004 8.02876 27.7715 7.45646C28.0426 6.86909 28.4266 6.37209 28.9236 5.96546C29.4206 5.55882 30.023 5.25008 30.7309 5.03923C31.4387 4.81332 32.2369 4.70037 33.1255 4.70037C34.1797 4.70037 35.0909 4.81332 35.859 5.03923C36.6271 5.26514 37.2596 5.51364 37.7566 5.78473L36.7401 8.56341C36.3033 8.3375 35.8138 8.14172 35.2716 7.97605C34.7445 7.79532 34.1044 7.70496 33.3514 7.70496C32.508 7.70496 31.8981 7.82544 31.5216 8.06641C31.1601 8.29232 30.9794 8.64625 30.9794 9.12819C30.9794 9.41434 31.0471 9.65531 31.1827 9.8511C31.3182 10.0469 31.5065 10.2276 31.7475 10.3933C32.0035 10.5439 32.2896 10.687 32.6059 10.8225C32.9372 10.943 33.2987 11.071 33.6903 11.2066C34.5036 11.5078 35.2114 11.809 35.8138 12.1102C36.4162 12.3963 36.9132 12.7352 37.3048 13.1268C37.7115 13.5184 38.0127 13.9777 38.2085 14.5048C38.4043 15.0319 38.5021 15.672 38.5021 16.4251C38.5021 17.8859 37.9901 19.023 36.966 19.8363C35.9418 20.6345 34.3981 21.0336 32.3348 21.0336C31.642 21.0336 31.017 20.9884 30.4598 20.8981C29.9025 20.8227 29.4055 20.7249 28.9688 20.6044C28.5471 20.4839 28.1781 20.3559 27.8618 20.2203C27.5606 20.0848 27.3046 19.9568 27.0937 19.8363L28.0877 17.035C28.5546 17.291 29.1269 17.5245 29.8046 17.7353C30.4974 17.9311 31.3408 18.029 32.3348 18.029L32.3348 18.029Z"/>
	</g>
	<defs>
		<clipPath id="clip_5">
			<rect x="-614" y="-10" width="1440" height="845" clip-rule="evenodd"/>
		</clipPath>
	</defs>
	<g clip-path="url(#clip_5)">
		<path fill="rgb(255,255,255)" stroke="none" d="M44.1154 5.06182C44.3865 5.55882 44.6953 6.17631 45.0417 6.91428C45.4031 7.63719 45.7721 8.42787 46.1486 9.28632C46.5402 10.1297 46.9242 10.9957 47.3008 11.8843C47.6773 12.7729 48.0312 13.6087 48.3625 14.3919C48.6939 13.6087 49.0478 12.7729 49.4243 11.8843C49.8008 10.9957 50.1773 10.1297 50.5538 9.28632C50.9454 8.42787 51.3144 7.63719 51.6608 6.91428C52.0223 6.17631 52.3385 5.55882 52.6096 5.06182L55.8175 5.06182C55.9681 6.101 56.1037 7.2682 56.2242 8.56341C56.3597 9.84357 56.4727 11.184 56.563 12.5846C56.6685 13.9702 56.7588 15.3633 56.8341 16.7639C56.9245 18.1646 56.9998 19.4824 57.06 20.7173L53.6262 20.7173C53.581 19.1962 53.5208 17.5395 53.4455 15.7473C53.3702 13.9551 53.2572 12.1478 53.1066 10.3255C52.8355 10.9581 52.5343 11.6584 52.203 12.4265C51.8716 13.1946 51.5403 13.9626 51.209 14.7307C50.8927 15.4988 50.584 16.2368 50.2828 16.9446C49.9815 17.6374 49.7255 18.2323 49.5147 18.7293L47.0523 18.7293C46.8414 18.2323 46.5854 17.6374 46.2842 16.9446C45.983 16.2368 45.6667 15.4988 45.3353 14.7307C45.0191 13.9626 44.6953 13.1946 44.3639 12.4265C44.0326 11.6584 43.7314 10.9581 43.4603 10.3255C43.3097 12.1478 43.1967 13.9551 43.1214 15.7473C43.0461 17.5395 42.9859 19.1962 42.9407 20.7173L39.5069 20.7173C39.5671 19.4824 39.6349 18.1646 39.7102 16.7639C39.8006 15.3633 39.8909 13.9702 39.9813 12.5846C40.0867 11.184 40.1997 9.84357 40.3202 8.56341C40.4557 7.2682 40.5988 6.101 40.7494 5.06182L44.1154 5.06182L44.1154 5.06182Z"/>
	</g>
	<defs>
		<clipPath id="clip_6">
			<rect x="-614" y="-10" width="1440" height="845" clip-rule="evenodd"/>
		</clipPath>
	</defs>
	<g clip-path="url(#clip_6)">
		<path fill="rgb(255,255,255)" stroke="none" d="M59.4525 3.07382C59.814 3.39009 60.2357 3.54823 60.7176 3.54823C61.1996 3.54823 61.6137 3.39009 61.9601 3.07382C62.3216 2.75755 62.5023 2.32832 62.5023 1.78614C62.5023 1.24396 62.3216 0.814731 61.9601 0.498458C61.6137 0.182184 61.1996 0.0240479 60.7176 0.0240479C60.2357 0.0240479 59.814 0.182184 59.4525 0.498458C59.1061 0.814731 58.9329 1.24396 58.9329 1.78614C58.9329 2.32832 59.1061 2.75755 59.4525 3.07382ZM62.5023 5.06182L58.9781 5.06182L58.9781 20.7173L62.5023 20.7173L62.5023 5.06182Z" fill-rule="evenodd"/>
	</g>
	<defs>
		<clipPath id="clip_7">
			<rect x="-614" y="-10" width="1440" height="845" clip-rule="evenodd"/>
		</clipPath>
	</defs>
	<g clip-path="url(#clip_7)">
		<path fill="rgb(255,255,255)" stroke="none" d="M76.6788 7.77273C75.0372 7.77273 73.8474 8.23208 73.1094 9.15078C72.3865 10.0544 72.025 11.2969 72.025 12.8783C72.025 13.6464 72.1154 14.3467 72.2961 14.9792C72.4769 15.5967 72.7479 16.1314 73.1094 16.5832C73.4709 17.035 73.9227 17.3889 74.4649 17.645C75.007 17.8859 75.6396 18.0064 76.3625 18.0064C76.7541 18.0064 77.0854 17.9989 77.3565 17.9838C77.6426 17.9688 77.8911 17.9386 78.102 17.8935L78.102 12.4491L81.6262 12.4491L81.6262 20.1977C81.2045 20.3634 80.5268 20.5366 79.593 20.7173C78.6592 20.9131 77.5071 21.011 76.1366 21.011C74.9619 21.011 73.8926 20.8303 72.9287 20.4688C71.9799 20.1074 71.1666 19.5802 70.4889 18.8875C69.8111 18.1947 69.284 17.3437 68.9075 16.3347C68.546 15.3256 68.3653 14.1735 68.3653 12.8783C68.3653 11.568 68.5686 10.4083 68.9753 9.39928C69.3819 8.39022 69.9391 7.53929 70.647 6.8465C71.3548 6.13866 72.1832 5.604 73.132 5.24255C74.0959 4.88109 75.12 4.70037 76.2044 4.70037C76.9423 4.70037 77.605 4.75308 78.1924 4.8585C78.7948 4.94887 79.3068 5.06182 79.7285 5.19737C80.1653 5.31785 80.5192 5.44587 80.7903 5.58141C81.0765 5.71696 81.2798 5.82238 81.4003 5.89769L80.3837 8.72155C79.9017 8.46552 79.3445 8.24714 78.7119 8.06641C78.0945 7.87063 77.4167 7.77273 76.6788 7.77273L76.6788 7.77273Z"/>
	</g>
	<defs>
		<clipPath id="clip_8">
			<rect x="-614" y="-10" width="1440" height="845" clip-rule="evenodd"/>
		</clipPath>
	</defs>
	<g clip-path="url(#clip_8)">
		<path fill="rgb(255,255,255)" stroke="none" d="M93.5676 19.0456C93.7784 19.6179 93.9667 20.1751 94.1323 20.7173L97.905 20.7173C97.3177 19.0305 96.7604 17.4718 96.2333 16.041C95.7062 14.6102 95.1866 13.2623 94.6745 11.9972C94.1775 10.7321 93.6805 9.53482 93.1835 8.40528C92.6865 7.26067 92.182 6.14619 91.6699 5.06182L88.3039 5.06182C87.7768 6.14619 87.2647 7.26067 86.7677 8.40528C86.2858 9.53482 85.7888 10.7321 85.2767 11.9972C84.7797 13.2623 84.2676 14.6102 83.7405 16.041C83.2134 17.4718 82.6562 19.0305 82.0688 20.7173L85.7285 20.7173C85.8942 20.1751 86.0749 19.6179 86.2707 19.0456C86.4816 18.4733 86.6849 17.901 86.8807 17.3287L92.9802 17.3287L93.5676 19.0456ZM89.569 9.53482C89.7196 9.14325 89.8325 8.8345 89.9078 8.6086C89.9982 8.8345 90.1187 9.14325 90.2693 9.53482C90.4199 9.9264 90.5931 10.3782 90.7889 10.8903C90.9997 11.4023 91.2181 11.9671 91.444 12.5846C91.6699 13.2021 91.9034 13.8497 92.1443 14.5274L87.6939 14.5274C87.9349 13.8497 88.1683 13.2021 88.3942 12.5846C88.6352 11.9671 88.8536 11.4023 89.0494 10.8903C89.2452 10.3782 89.4184 9.9264 89.569 9.53482Z" fill-rule="evenodd"/>
	</g>
	<defs>
		<clipPath id="clip_9">
			<rect x="-614" y="-10" width="1440" height="845" clip-rule="evenodd"/>
		</clipPath>
	</defs>
	<g clip-path="url(#clip_9)">
		<path fill="rgb(255,255,255)" stroke="none" d="M110.275 7.50164C109.793 7.99864 109.221 8.64625 108.558 9.44446C107.895 10.2276 107.21 11.0861 106.502 12.0198C105.794 12.9536 105.094 13.9175 104.401 14.9115C103.709 15.9055 103.091 16.8543 102.549 17.7579L110.523 17.7579L110.523 20.7173L98.2114 20.7173L98.2114 18.6164C98.6331 17.8483 99.1452 16.9974 99.7476 16.0636C100.365 15.1148 101.005 14.166 101.668 13.2171C102.33 12.2533 103.001 11.327 103.678 10.4385C104.371 9.53482 105.011 8.72908 105.599 8.02123L98.5728 8.02123L98.5728 5.06182L110.275 5.06182L110.275 7.50164L110.275 7.50164Z"/>
	</g>
	<defs>
		<clipPath id="clip_10">
			<rect x="-614" y="-10" width="1440" height="845" clip-rule="evenodd"/>
		</clipPath>
	</defs>
	<g clip-path="url(#clip_10)">
		<path fill="rgb(255,255,255)" stroke="none" d="M111.761 20.7173L111.761 5.06182L122.334 5.06182L122.334 8.02123L115.286 8.02123L115.286 11.0936L121.543 11.0936L121.543 13.9852L115.286 13.9852L115.286 17.7579L122.853 17.7579L122.853 20.7173L111.761 20.7173L111.761 20.7173Z"/>
	</g>
	<defs>
		<clipPath id="clip_11">
			<rect x="-614" y="-10" width="1440" height="845" clip-rule="evenodd"/>
		</clipPath>
	</defs>
	<g clip-path="url(#clip_11)">
		<path fill="rgb(255,255,255)" stroke="none" d="M135.818 5.06182L135.818 8.06641L131.097 8.06641L131.097 20.7173L127.572 20.7173L127.572 8.06641L122.851 8.06641L122.851 5.06182L135.818 5.06182L135.818 5.06182Z"/>
	</g>
	<defs>
		<clipPath id="clip_12">
			<rect x="-614" y="-10" width="1440" height="845" clip-rule="evenodd"/>
		</clipPath>
	</defs>
	<g clip-path="url(#clip_12)">
		<path fill="rgb(255,255,255)" stroke="none" d="M136.828 20.7173L136.828 5.06182L147.401 5.06182L147.401 8.02123L140.352 8.02123L140.352 11.0936L146.61 11.0936L146.61 13.9852L140.352 13.9852L140.352 17.7579L147.92 17.7579L147.92 20.7173L136.828 20.7173L136.828 20.7173Z"/>
	</g>
	<defs>
		<clipPath id="clip_13">
			<rect x="-614" y="-10" width="1440" height="845" clip-rule="evenodd"/>
		</clipPath>
	</defs>
	<g clip-path="url(#clip_13)">
		<path fill="rgb(255,255,255)" stroke="none" d="M165.057 5.06182L165.057 8.06641L160.335 8.06641L160.335 20.7173L156.811 20.7173L156.811 8.06641L152.09 8.06641L152.09 5.06182L165.057 5.06182L165.057 5.06182Z"/>
	</g>
	<defs>
		<clipPath id="clip_14">
			<rect x="-614" y="-10" width="1440" height="845" clip-rule="evenodd"/>
		</clipPath>
	</defs>
	<g clip-path="url(#clip_14)">
		<path fill="rgb(255,255,255)" stroke="none" d="M174.131 19.0456C174.342 19.6179 174.53 20.1751 174.696 20.7173L178.468 20.7173C177.881 19.0305 177.324 17.4718 176.797 16.041C176.27 14.6102 175.75 13.2623 175.238 11.9972C174.741 10.7321 174.244 9.53482 173.747 8.40528C173.25 7.26067 172.745 6.14619 172.233 5.06182L168.867 5.06182C168.34 6.14619 167.828 7.26067 167.331 8.40528C166.849 9.53482 166.352 10.7321 165.84 11.9972C165.343 13.2623 164.831 14.6102 164.304 16.041C163.777 17.4718 163.22 19.0305 162.632 20.7173L166.292 20.7173C166.458 20.1751 166.638 19.6179 166.834 19.0456C167.045 18.4733 167.248 17.901 167.444 17.3287L173.544 17.3287C173.739 17.901 173.935 18.4733 174.131 19.0456ZM170.132 9.53482C170.283 9.14325 170.396 8.8345 170.471 8.6086C170.562 8.8345 170.682 9.14325 170.833 9.53482C170.983 9.9264 171.157 10.3782 171.352 10.8903C171.563 11.4023 171.782 11.9671 172.007 12.5846C172.233 13.2021 172.467 13.8497 172.708 14.5274L168.257 14.5274C168.498 13.8497 168.732 13.2021 168.958 12.5846C169.199 11.9671 169.417 11.4023 169.613 10.8903C169.809 10.3782 169.982 9.9264 170.132 9.53482Z" fill-rule="evenodd"/>
	</g>
	<defs>
		<clipPath id="clip_15">
			<rect x="-614" y="-10" width="1440" height="845" clip-rule="evenodd"/>
		</clipPath>
	</defs>
	<g clip-path="url(#clip_15)">
		<path fill="rgb(255,255,255)" stroke="none" d="M188.48 20.7173C188.163 20.2053 187.787 19.6556 187.35 19.0682C186.928 18.4658 186.461 17.8709 185.949 17.2835C185.452 16.6811 184.933 16.1088 184.391 15.5666C183.848 15.0094 183.306 14.5199 182.764 14.0982L182.764 20.7173L179.24 20.7173L179.24 5.06182L182.764 5.06182L182.764 10.9806C183.683 10.0168 184.601 9.01523 185.52 7.97605C186.454 6.92181 187.32 5.9504 188.118 5.06182L192.297 5.06182C191.228 6.32691 190.151 7.54682 189.067 8.72155C187.998 9.89628 186.868 11.0785 185.678 12.2683C186.928 13.3075 188.133 14.5425 189.293 15.9732C190.468 17.404 191.59 18.9854 192.659 20.7173L188.48 20.7173L188.48 20.7173Z"/>
	</g>
	<defs>
		<clipPath id="clip_16">
			<rect x="-614" y="-10" width="1440" height="845" clip-rule="evenodd"/>
		</clipPath>
	</defs>
	<g clip-path="url(#clip_16)">
		<path fill="rgb(255,255,255)" stroke="none" d="M193.902 3.07382C194.264 3.39009 194.685 3.54823 195.167 3.54823C195.649 3.54823 196.063 3.39009 196.41 3.07382C196.771 2.75755 196.952 2.32832 196.952 1.78614C196.952 1.24396 196.771 0.814731 196.41 0.498458C196.063 0.182184 195.649 0.0240479 195.167 0.0240479C194.685 0.0240479 194.264 0.182184 193.902 0.498458C193.556 0.814731 193.383 1.24396 193.383 1.78614C193.383 2.32832 193.556 2.75755 193.902 3.07382ZM196.952 5.06182L193.428 5.06182L193.428 20.7173L196.952 20.7173L196.952 5.06182Z" fill-rule="evenodd"/>
	</g>
	<defs>
		<clipPath id="clip_17">
			<rect x="-614" y="-10" width="1440" height="845" clip-rule="evenodd"/>
		</clipPath>
	</defs>
	<g clip-path="url(#clip_17)">
		<path fill="rgb(255,255,255)" stroke="none" d="M209.396 6.12359C208.146 5.29526 206.354 4.88109 204.02 4.88109C203.372 4.88109 202.619 4.91122 201.761 4.97146C200.902 5.0317 200.089 5.13713 199.321 5.28773L199.321 20.7173L202.845 20.7173L202.845 15.4762L203.952 15.4762C206.301 15.4762 208.109 15.0621 209.374 14.2337C210.639 13.3903 211.271 12.0274 211.271 10.1448C211.271 8.27726 210.646 6.93687 209.396 6.12359ZM203.477 7.90828C203.733 7.89322 203.99 7.88569 204.246 7.88569C204.758 7.88569 205.224 7.92334 205.646 7.99864C206.068 8.05888 206.422 8.17937 206.708 8.36009C207.009 8.52576 207.235 8.75167 207.386 9.03782C207.551 9.32397 207.634 9.68543 207.634 10.1222C207.634 11.0258 207.325 11.6433 206.708 11.9746C206.09 12.306 205.172 12.4716 203.952 12.4716L202.845 12.4716L202.845 7.95346C203.026 7.9384 203.236 7.92334 203.477 7.90828Z" fill-rule="evenodd"/>
	</g>
	<defs>
		<clipPath id="clip_18">
			<rect x="-614" y="-10" width="1440" height="845" clip-rule="evenodd"/>
		</clipPath>
	</defs>
	<g clip-path="url(#clip_18)">
		<path fill="rgb(255,255,255)" stroke="none" d="M45.9447 35.6625L47.4056 35.6625L47.4056 40.5421C47.2851 40.5823 47.1094 40.6274 46.8785 40.6777C46.6576 40.7279 46.3966 40.7781 46.0954 40.8283C45.8042 40.8785 45.4829 40.9186 45.1315 40.9487C44.7801 40.9889 44.4236 41.009 44.0622 41.009C43.3292 41.009 42.6615 40.8885 42.0591 40.6475C41.4567 40.4066 40.9396 40.0551 40.5079 39.5933C40.0761 39.1314 39.7398 38.5641 39.4988 37.8914C39.2679 37.2187 39.1524 36.4456 39.1524 35.5721C39.1524 34.6986 39.2829 33.9255 39.544 33.2528C39.8151 32.57 40.1765 31.9977 40.6284 31.5359C41.0802 31.074 41.6073 30.7226 42.2097 30.4816C42.8222 30.2406 43.4748 30.1202 44.1676 30.1202C44.6395 30.1202 45.0562 30.1503 45.4176 30.2105C45.7891 30.2708 46.1054 30.3411 46.3664 30.4214C46.6275 30.5017 46.8383 30.582 46.999 30.6623C47.1697 30.7427 47.2851 30.8029 47.3454 30.8431L46.8785 32.063C46.5873 31.8722 46.2008 31.7166 45.7188 31.5961C45.2369 31.4656 44.7449 31.4003 44.2429 31.4003C43.7108 31.4003 43.2238 31.4957 42.782 31.6865C42.3503 31.8772 41.9788 32.1533 41.6675 32.5148C41.3663 32.8763 41.1304 33.318 40.9597 33.8401C40.789 34.3522 40.7037 34.9295 40.7037 35.5721C40.7037 36.1946 40.7739 36.7619 40.9145 37.274C41.0651 37.786 41.286 38.2278 41.5772 38.5993C41.8784 38.9607 42.2449 39.2419 42.6766 39.4427C43.1184 39.6435 43.6355 39.7439 44.2278 39.7439C44.6495 39.7439 45.006 39.7238 45.2971 39.6836C45.5984 39.6334 45.8142 39.5883 45.9447 39.5481L45.9447 35.6625L45.9447 35.6625Z"/>
	</g>
	<defs>
		<clipPath id="clip_19">
			<rect x="-614" y="-10" width="1440" height="845" clip-rule="evenodd"/>
		</clipPath>
	</defs>
	<g clip-path="url(#clip_19)">
		<path fill="rgb(255,255,255)" stroke="none" d="M54.6579 29.1713C54.427 29.1713 54.2212 29.091 54.0405 28.9304C53.8698 28.7597 53.7844 28.5438 53.7844 28.2828C53.7844 28.0217 53.8698 27.8109 54.0405 27.6502C54.2212 27.4795 54.427 27.3942 54.6579 27.3942C54.8889 27.3942 55.0897 27.4795 55.2604 27.6502C55.4411 27.8109 55.5315 28.0217 55.5315 28.2828C55.5315 28.5438 55.4411 28.7597 55.2604 28.9304C55.0897 29.091 54.8889 29.1713 54.6579 29.1713ZM56.902 28.9304C57.0827 29.091 57.2885 29.1713 57.5195 29.1713C57.7504 29.1713 57.9512 29.091 58.1219 28.9304C58.3026 28.7597 58.393 28.5438 58.393 28.2828C58.393 28.0217 58.3026 27.8109 58.1219 27.6502C57.9512 27.4795 57.7504 27.3942 57.5195 27.3942C57.2885 27.3942 57.0827 27.4795 56.902 27.6502C56.7313 27.8109 56.6459 28.0217 56.6459 28.2828C56.6459 28.5438 56.7313 28.7597 56.902 28.9304ZM56.0887 41.024C55.4059 41.024 54.8136 40.9186 54.3115 40.7078C53.8095 40.4969 53.3979 40.2108 53.0766 39.8493C52.7553 39.4778 52.5143 39.0411 52.3537 38.539C52.2031 38.037 52.1278 37.4948 52.1278 36.9125L52.1278 30.3611L53.5886 30.3611L53.5886 36.7468C53.5886 37.791 53.8196 38.5491 54.2814 39.021C54.7433 39.4929 55.3457 39.7288 56.0887 39.7288C56.4602 39.7288 56.7965 39.6736 57.0978 39.5632C57.409 39.4427 57.6751 39.262 57.896 39.021C58.1169 38.78 58.2875 38.4738 58.408 38.1023C58.5285 37.7208 58.5888 37.2689 58.5888 36.7468L58.5888 30.3611L60.0496 30.3611L60.0496 36.9125C60.0496 37.4948 59.9693 38.037 59.8087 38.539C59.6581 39.0411 59.4171 39.4778 59.0858 39.8493C58.7645 40.2108 58.3528 40.4969 57.8508 40.7078C57.3588 40.9186 56.7714 41.024 56.0887 41.024Z" fill-rule="evenodd"/>
	</g>
	<defs>
		<clipPath id="clip_20">
			<rect x="-614" y="-10" width="1440" height="845" clip-rule="evenodd"/>
		</clipPath>
	</defs>
	<g clip-path="url(#clip_20)">
		<path fill="rgb(255,255,255)" stroke="none" d="M72.2358 40.7981C72.0149 40.4266 71.7589 40.01 71.4677 39.5481C71.1866 39.0862 70.8804 38.6093 70.549 38.1173C70.2177 37.6153 69.8713 37.1083 69.5099 36.5962C69.1584 36.0842 68.807 35.5922 68.4556 35.1203C68.1042 34.6383 67.7628 34.1865 67.4315 33.7648C67.1002 33.3431 66.7939 32.9716 66.5128 32.6503L66.5128 40.7981L65.082 40.7981L65.082 30.3611L66.2417 30.3611C66.7136 30.8632 67.2156 31.4505 67.7478 32.1232C68.2899 32.7859 68.8221 33.4737 69.3442 34.1865C69.8763 34.8894 70.3733 35.5821 70.8352 36.2649C71.3071 36.9476 71.7037 37.5551 72.025 38.0872L72.025 30.3611L73.4557 30.3611L73.4557 40.7981L72.2358 40.7981L72.2358 40.7981Z"/>
	</g>
	<defs>
		<clipPath id="clip_21">
			<rect x="-614" y="-10" width="1440" height="845" clip-rule="evenodd"/>
		</clipPath>
	</defs>
	<g clip-path="url(#clip_21)">
		<path fill="rgb(255,255,255)" stroke="none" d="M83.0374 41.024C82.3044 41.024 81.6367 40.9036 81.0343 40.6626C80.4319 40.4216 79.9148 40.0702 79.4831 39.6083C79.0513 39.1465 78.715 38.5792 78.474 37.9065C78.2431 37.2238 78.1276 36.4456 78.1276 35.5721C78.1276 34.6986 78.2581 33.9255 78.5192 33.2528C78.7903 32.57 79.1517 31.9977 79.6036 31.5359C80.0554 31.074 80.5825 30.7226 81.1849 30.4816C81.7874 30.2406 82.4299 30.1202 83.1127 30.1202C83.5444 30.1202 83.931 30.1503 84.2724 30.2105C84.6238 30.2708 84.925 30.3411 85.176 30.4214C85.437 30.5017 85.6479 30.582 85.8085 30.6623C85.9692 30.7427 86.0796 30.8029 86.1399 30.8431L85.7182 32.0479C85.6278 31.9877 85.4973 31.9224 85.3266 31.8521C85.1559 31.7819 84.9601 31.7116 84.7392 31.6413C84.5284 31.571 84.2924 31.5158 84.0314 31.4756C83.7804 31.4254 83.5243 31.4003 83.2633 31.4003C82.7111 31.4003 82.2141 31.4957 81.7723 31.6865C81.3305 31.8772 80.954 32.1533 80.6427 32.5148C80.3315 32.8763 80.0905 33.318 79.9198 33.8401C79.7592 34.3522 79.6789 34.9295 79.6789 35.5721C79.6789 36.1946 79.7491 36.7619 79.8897 37.274C80.0403 37.786 80.2612 38.2278 80.5524 38.5993C80.8436 38.9607 81.205 39.2419 81.6367 39.4427C82.0785 39.6435 82.5906 39.7439 83.1729 39.7439C83.8456 39.7439 84.4029 39.6736 84.8447 39.533C85.2864 39.3925 85.6178 39.267 85.8387 39.1565L86.2152 40.3614C86.1449 40.4116 86.0194 40.4768 85.8387 40.5572C85.6579 40.6274 85.432 40.6977 85.1609 40.768C84.8898 40.8383 84.5736 40.8985 84.2121 40.9487C83.8506 40.9989 83.4591 41.024 83.0374 41.024L83.0374 41.024Z"/>
	</g>
	<defs>
		<clipPath id="clip_22">
			<rect x="-614" y="-10" width="1440" height="845" clip-rule="evenodd"/>
		</clipPath>
	</defs>
	<g clip-path="url(#clip_22)">
		<path fill="rgb(255,255,255)" stroke="none" d="M90.3988 40.7981L90.3988 30.3611L96.7694 30.3611L96.7694 31.6112L91.8596 31.6112L91.8596 34.7136L96.2272 34.7136L96.2272 35.9336L91.8596 35.9336L91.8596 39.5481L97.1459 39.5481L97.1459 40.7981L90.3988 40.7981L90.3988 40.7981Z"/>
	</g>
	<defs>
		<clipPath id="clip_23">
			<rect x="-614" y="-10" width="1440" height="845" clip-rule="evenodd"/>
		</clipPath>
	</defs>
	<g clip-path="url(#clip_23)">
		<path fill="rgb(255,255,255)" stroke="none" d="M107.793 39.533L107.793 40.7981L101.513 40.7981L101.513 30.3611L102.974 30.3611L102.974 39.533L107.793 39.533L107.793 39.533Z"/>
	</g>
	<defs>
		<clipPath id="clip_24">
			<rect x="-614" y="-10" width="1440" height="845" clip-rule="evenodd"/>
		</clipPath>
	</defs>
	<g clip-path="url(#clip_24)">
		<path fill="rgb(255,255,255)" stroke="none" d="M125.555 30.3611C125.243 30.7025 124.892 31.084 124.5 31.5057C124.109 31.9174 123.697 32.3441 123.265 32.7859C122.844 33.2176 122.422 33.6443 122 34.066C121.579 34.4877 121.182 34.8793 120.81 35.2408C121.242 35.542 121.699 35.9135 122.181 36.3553C122.663 36.797 123.135 37.2689 123.597 37.771C124.059 38.273 124.49 38.785 124.892 39.3071C125.304 39.8292 125.645 40.3262 125.916 40.7981L124.199 40.7981C123.898 40.3262 123.552 39.8543 123.16 39.3824C122.768 38.9005 122.352 38.4437 121.91 38.0119C121.478 37.5701 121.036 37.1635 120.585 36.792C120.143 36.4205 119.711 36.1042 119.289 35.8432L119.289 40.7981L117.828 40.7981L117.828 30.3611L119.289 30.3611L119.289 34.9697C119.641 34.6383 120.027 34.2669 120.449 33.8552C120.871 33.4335 121.287 33.0118 121.699 32.5901C122.111 32.1684 122.497 31.7668 122.859 31.3853C123.23 30.9937 123.541 30.6523 123.792 30.3611L125.555 30.3611L125.555 30.3611Z"/>
	</g>
	<defs>
		<clipPath id="clip_25">
			<rect x="-614" y="-10" width="1440" height="845" clip-rule="evenodd"/>
		</clipPath>
	</defs>
	<g clip-path="url(#clip_25)">
		<path fill="rgb(255,255,255)" stroke="none" d="M136.816 39.4728C136.967 39.9045 137.127 40.3463 137.298 40.7981L138.895 40.7981C138.493 39.6937 138.116 38.6746 137.765 37.7408C137.414 36.797 137.067 35.9034 136.726 35.06C136.394 34.2166 136.063 33.4134 135.732 32.6503C135.4 31.8772 135.054 31.1142 134.693 30.3611L133.352 30.3611C132.991 31.1142 132.644 31.8772 132.313 32.6503C131.982 33.4134 131.645 34.2166 131.304 35.06C130.973 35.9034 130.631 36.797 130.28 37.7408C129.928 38.6746 129.552 39.6937 129.15 40.7981L130.671 40.7981L131.62 38.1324L136.349 38.1324C136.51 38.5842 136.666 39.031 136.816 39.4728ZM134.964 34.3974C135.285 35.2106 135.606 36.054 135.928 36.9276L132.042 36.9276C132.353 36.054 132.664 35.2106 132.976 34.3974C133.297 33.5741 133.633 32.7859 133.985 32.0329C134.326 32.7859 134.652 33.5741 134.964 34.3974Z" fill-rule="evenodd"/>
	</g>
	<defs>
		<clipPath id="clip_26">
			<rect x="-614" y="-10" width="1440" height="845" clip-rule="evenodd"/>
		</clipPath>
	</defs>
	<g clip-path="url(#clip_26)">
		<path fill="rgb(255,255,255)" stroke="none" d="M149.102 39.533L149.102 40.7981L142.822 40.7981L142.822 30.3611L144.283 30.3611L144.283 39.533L149.102 39.533L149.102 39.533Z"/>
	</g>
	<defs>
		<clipPath id="clip_27">
			<rect x="-614" y="-10" width="1440" height="845" clip-rule="evenodd"/>
		</clipPath>
	</defs>
	<g clip-path="url(#clip_27)">
		<path fill="rgb(255,255,255)" stroke="none" d="M153.141 30.3611L154.602 30.3611L154.602 40.7981L153.141 40.7981L153.141 30.3611L153.141 30.3611Z"/>
	</g>
	<defs>
		<clipPath id="clip_28">
			<rect x="-614" y="-10" width="1440" height="845" clip-rule="evenodd"/>
		</clipPath>
	</defs>
	<g clip-path="url(#clip_28)">
		<path fill="rgb(255,255,255)" stroke="none" d="M166.85 40.7981C166.629 40.4266 166.373 40.01 166.082 39.5481C165.801 39.0862 165.495 38.6093 165.163 38.1173C164.832 37.6153 164.485 37.1083 164.124 36.5962C163.773 36.0842 163.421 35.5922 163.07 35.1203C162.718 34.6383 162.377 34.1865 162.046 33.7648C161.714 33.3431 161.408 32.9716 161.127 32.6503L161.127 40.7981L159.696 40.7981L159.696 30.3611L160.856 30.3611C161.328 30.8632 161.83 31.4505 162.362 32.1232C162.904 32.7859 163.436 33.4737 163.958 34.1865C164.49 34.8894 164.987 35.5821 165.449 36.2649C165.921 36.9476 166.318 37.5551 166.639 38.0872L166.639 30.3611L168.07 30.3611L168.07 40.7981L166.85 40.7981L166.85 40.7981Z"/>
	</g>

</svg>