<?xml version="1.0" encoding="utf-8" ?>
<svg xmlns="http://www.w3.org/2000/svg" xmlns:xlink="http://www.w3.org/1999/xlink" width="212" height="42">
	<defs>
		<clipPath id="clip_0">
			<rect x="-616" y="-1075" width="1440" height="1191" clip-rule="evenodd"/>
		</clipPath>
	</defs>
	<g clip-path="url(#clip_0)">
		<path fill="rgb(0,0,0)" stroke="none" transform="translate(0.951416 25.2375)" d="M0 0L210.849 0.001"/>
	</g>
	<defs>
		<clipPath id="clip_1">
			<rect x="-616" y="-1075" width="1440" height="1191" clip-rule="evenodd"/>
		</clipPath>
	</defs>
	<g clip-path="url(#clip_1)">
		<path fill="none" stroke="rgb(227,170,48)" stroke-width="1" stroke-linecap="round" stroke-linejoin="round" transform="translate(0.951416 25.2375)" d="M0 0L210.849 0.001"/>
	</g>
	<defs>
		<clipPath id="clip_2">
			<rect x="-616" y="-1075" width="1440" height="1191" clip-rule="evenodd"/>
		</clipPath>
	</defs>
	<g clip-path="url(#clip_2)">
		<path fill="rgb(37,40,57)" stroke="none" transform="translate(0.951416 0)" d="M11.7923 6.14612C10.5423 5.30273 8.74254 4.88103 6.39308 4.88103C5.74548 4.88103 5.00751 4.91116 4.17917 4.9714C3.3659 5.03164 2.57522 5.13706 1.80713 5.28767L1.80713 20.7173L5.33131 20.7173L5.33131 15.0018L7.07081 15.0018C7.37202 15.3632 7.67324 15.7699 7.97445 16.2217C8.27566 16.6584 8.57687 17.1253 8.87808 17.6223C9.19436 18.1193 9.49557 18.6314 9.78172 19.1585C10.0829 19.6856 10.3766 20.2052 10.6628 20.7173L14.6162 20.7173C14.3451 20.145 14.0514 19.5651 13.7351 18.9778C13.4189 18.3753 13.0875 17.803 12.7411 17.2609C12.4098 16.7036 12.0709 16.1765 11.7245 15.6795C11.3781 15.1674 11.0468 14.7156 10.7305 14.324C11.6794 13.9325 12.4023 13.3978 12.8993 12.7201C13.4113 12.0273 13.6674 11.1312 13.6674 10.0318C13.6674 8.26967 13.0423 6.97446 11.7923 6.14612ZM5.89608 7.90822C6.10693 7.89316 6.34037 7.88563 6.5964 7.88563C7.72595 7.88563 8.57687 8.05129 9.14918 8.38263C9.73654 8.6989 10.0302 9.24108 10.0302 10.0092C10.0302 10.8074 9.74407 11.3722 9.17177 11.7035C8.59946 12.0348 7.65065 12.2005 6.32531 12.2005L5.33131 12.2005L5.33131 7.9534C5.51204 7.93834 5.7003 7.92328 5.89608 7.90822Z" fill-rule="evenodd"/>
	</g>
	<defs>
		<clipPath id="clip_3">
			<rect x="-616" y="-1075" width="1440" height="1191" clip-rule="evenodd"/>
		</clipPath>
	</defs>
	<g clip-path="url(#clip_3)">
		<path fill="rgb(37,40,57)" stroke="none" transform="translate(0.951416 0)" d="M15.62 20.7173L15.62 5.06176L26.1926 5.06176L26.1926 8.02117L19.1442 8.02117L19.1442 11.0935L25.4019 11.0935L25.4019 13.9852L19.1442 13.9852L19.1442 17.7579L26.7122 17.7579L26.7122 20.7173L15.62 20.7173L15.62 20.7173Z"/>
	</g>
	<defs>
		<clipPath id="clip_4">
			<rect x="-616" y="-1075" width="1440" height="1191" clip-rule="evenodd"/>
		</clipPath>
	</defs>
	<g clip-path="url(#clip_4)">
		<path fill="rgb(37,40,57)" stroke="none" transform="translate(0.951416 0)" d="M32.3348 18.0289C32.8318 18.0289 33.2385 17.9913 33.5547 17.916C33.8861 17.8256 34.1496 17.7127 34.3454 17.5771C34.5412 17.4265 34.6768 17.2533 34.7521 17.0575C34.8274 16.8617 34.865 16.6434 34.865 16.4024C34.865 15.8903 34.624 15.4686 34.1421 15.1373C33.6602 14.7909 32.8318 14.4219 31.6571 14.0304C31.145 13.8496 30.633 13.6463 30.1209 13.4204C29.6089 13.1794 29.1495 12.8857 28.7429 12.5394C28.3362 12.1779 28.0049 11.7487 27.7489 11.2517C27.4928 10.7396 27.3648 10.1221 27.3648 9.39922C27.3648 8.67631 27.5004 8.0287 27.7715 7.4564C28.0426 6.86903 28.4266 6.37203 28.9236 5.9654C29.4206 5.55876 30.023 5.25002 30.7309 5.03917C31.4387 4.81326 32.2369 4.70031 33.1255 4.70031C34.1797 4.70031 35.0909 4.81326 35.859 5.03917C36.6271 5.26508 37.2596 5.51358 37.7566 5.78467L36.7401 8.56335C36.3033 8.33744 35.8138 8.14166 35.2716 7.97599C34.7445 7.79526 34.1044 7.7049 33.3514 7.7049C32.508 7.7049 31.8981 7.82538 31.5216 8.06635C31.1601 8.29226 30.9794 8.64619 30.9794 9.12813C30.9794 9.41428 31.0471 9.65525 31.1827 9.85103C31.3182 10.0468 31.5065 10.2275 31.7475 10.3932C32.0035 10.5438 32.2896 10.6869 32.6059 10.8224C32.9372 10.9429 33.2987 11.0709 33.6903 11.2065C34.5036 11.5077 35.2114 11.8089 35.8138 12.1101C36.4162 12.3963 36.9132 12.7351 37.3048 13.1267C37.7115 13.5183 38.0127 13.9776 38.2085 14.5048C38.4043 15.0319 38.5021 15.672 38.5021 16.425C38.5021 17.8859 37.9901 19.0229 36.966 19.8362C35.9418 20.6344 34.3981 21.0335 32.3348 21.0335C31.642 21.0335 31.017 20.9884 30.4598 20.898C29.9025 20.8227 29.4055 20.7248 28.9688 20.6043C28.5471 20.4838 28.1781 20.3558 27.8618 20.2203C27.5606 20.0847 27.3046 19.9567 27.0937 19.8362L28.0877 17.0349C28.5546 17.291 29.1269 17.5244 29.8046 17.7353C30.4974 17.9311 31.3408 18.0289 32.3348 18.0289L32.3348 18.0289Z"/>
	</g>
	<defs>
		<clipPath id="clip_5">
			<rect x="-616" y="-1075" width="1440" height="1191" clip-rule="evenodd"/>
		</clipPath>
	</defs>
	<g clip-path="url(#clip_5)">
		<path fill="rgb(37,40,57)" stroke="none" transform="translate(0.951416 0)" d="M44.1154 5.06176C44.3865 5.55876 44.6953 6.17625 45.0417 6.91422C45.4031 7.63713 45.7721 8.42781 46.1486 9.28626C46.5402 10.1297 46.9242 10.9956 47.3008 11.8842C47.6773 12.7728 48.0312 13.6087 48.3625 14.3918C48.6939 13.6087 49.0478 12.7728 49.4243 11.8842C49.8008 10.9956 50.1773 10.1297 50.5538 9.28626C50.9454 8.42781 51.3144 7.63713 51.6608 6.91422C52.0223 6.17625 52.3385 5.55876 52.6096 5.06176L55.8175 5.06176C55.9681 6.10094 56.1037 7.26814 56.2242 8.56335C56.3597 9.8435 56.4727 11.1839 56.563 12.5845C56.6685 13.9701 56.7588 15.3632 56.8341 16.7639C56.9245 18.1645 56.9998 19.4823 57.06 20.7173L53.6262 20.7173C53.581 19.1961 53.5208 17.5395 53.4455 15.7473C53.3702 13.9551 53.2572 12.1478 53.1066 10.3254C52.8355 10.958 52.5343 11.6583 52.203 12.4264C51.8716 13.1945 51.5403 13.9626 51.209 14.7307C50.8927 15.4988 50.584 16.2367 50.2828 16.9446C49.9815 17.6374 49.7255 18.2323 49.5147 18.7293L47.0523 18.7293C46.8414 18.2323 46.5854 17.6374 46.2842 16.9446C45.983 16.2367 45.6667 15.4988 45.3353 14.7307C45.0191 13.9626 44.6953 13.1945 44.3639 12.4264C44.0326 11.6583 43.7314 10.958 43.4603 10.3254C43.3097 12.1478 43.1967 13.9551 43.1214 15.7473C43.0461 17.5395 42.9859 19.1961 42.9407 20.7173L39.5069 20.7173C39.5671 19.4823 39.6349 18.1645 39.7102 16.7639C39.8006 15.3632 39.8909 13.9701 39.9813 12.5845C40.0867 11.1839 40.1997 9.8435 40.3202 8.56335C40.4557 7.26814 40.5988 6.10094 40.7494 5.06176L44.1154 5.06176L44.1154 5.06176Z"/>
	</g>
	<defs>
		<clipPath id="clip_6">
			<rect x="-616" y="-1075" width="1440" height="1191" clip-rule="evenodd"/>
		</clipPath>
	</defs>
	<g clip-path="url(#clip_6)">
		<path fill="rgb(37,40,57)" stroke="none" transform="translate(0.951416 0)" d="M59.4525 3.07376C59.814 3.39003 60.2357 3.54817 60.7176 3.54817C61.1996 3.54817 61.6137 3.39003 61.9601 3.07376C62.3216 2.75749 62.5023 2.32826 62.5023 1.78608C62.5023 1.2439 62.3216 0.81467 61.9601 0.498397C61.6137 0.182123 61.1996 0.0239868 60.7176 0.0239868C60.2357 0.0239868 59.814 0.182123 59.4525 0.498397C59.1061 0.81467 58.9329 1.2439 58.9329 1.78608C58.9329 2.32826 59.1061 2.75749 59.4525 3.07376ZM62.5023 5.06176L58.9781 5.06176L58.9781 20.7173L62.5023 20.7173L62.5023 5.06176Z" fill-rule="evenodd"/>
	</g>
	<defs>
		<clipPath id="clip_7">
			<rect x="-616" y="-1075" width="1440" height="1191" clip-rule="evenodd"/>
		</clipPath>
	</defs>
	<g clip-path="url(#clip_7)">
		<path fill="rgb(37,40,57)" stroke="none" transform="translate(0.951416 0)" d="M76.6788 7.77267C75.0372 7.77267 73.8474 8.23202 73.1094 9.15072C72.3865 10.0544 72.025 11.2969 72.025 12.8782C72.025 13.6463 72.1154 14.3466 72.2961 14.9792C72.4769 15.5967 72.7479 16.1313 73.1094 16.5831C73.4709 17.0349 73.9227 17.3889 74.4649 17.6449C75.007 17.8859 75.6396 18.0064 76.3625 18.0064C76.7541 18.0064 77.0854 17.9988 77.3565 17.9838C77.6426 17.9687 77.8911 17.9386 78.102 17.8934L78.102 12.449L81.6262 12.449L81.6262 20.1977C81.2045 20.3633 80.5268 20.5365 79.593 20.7173C78.6592 20.9131 77.5071 21.0109 76.1366 21.0109C74.9619 21.0109 73.8926 20.8302 72.9287 20.4688C71.9799 20.1073 71.1666 19.5802 70.4889 18.8874C69.8111 18.1946 69.284 17.3437 68.9075 16.3346C68.546 15.3256 68.3653 14.1734 68.3653 12.8782C68.3653 11.5679 68.5686 10.4083 68.9753 9.39922C69.3819 8.39016 69.9391 7.53923 70.647 6.84644C71.3548 6.13859 72.1832 5.60394 73.132 5.24249C74.0959 4.88103 75.12 4.70031 76.2044 4.70031C76.9423 4.70031 77.605 4.75302 78.1924 4.85844C78.7948 4.94881 79.3068 5.06176 79.7285 5.19731C80.1653 5.31779 80.5192 5.44581 80.7903 5.58135C81.0765 5.7169 81.2798 5.82232 81.4003 5.89762L80.3837 8.72149C79.9017 8.46546 79.3445 8.24708 78.7119 8.06635C78.0945 7.87056 77.4167 7.77267 76.6788 7.77267L76.6788 7.77267Z"/>
	</g>
	<defs>
		<clipPath id="clip_8">
			<rect x="-616" y="-1075" width="1440" height="1191" clip-rule="evenodd"/>
		</clipPath>
	</defs>
	<g clip-path="url(#clip_8)">
		<path fill="rgb(37,40,57)" stroke="none" transform="translate(0.951416 0)" d="M93.5676 19.0455C93.7784 19.6178 93.9667 20.1751 94.1323 20.7173L97.905 20.7173C97.3177 19.0305 96.7604 17.4717 96.2333 16.0409Q95.4426 13.8949 94.6745 11.9972C94.1775 10.7321 93.6805 9.53476 93.1835 8.40522C92.6865 7.26061 92.182 6.14612 91.6699 5.06176L88.3039 5.06176C87.7768 6.14612 87.2647 7.26061 86.7677 8.40522C86.2858 9.53476 85.7888 10.7321 85.2767 11.9972C84.7797 13.2623 84.2676 14.6102 83.7405 16.0409C83.2134 17.4717 82.6562 19.0305 82.0688 20.7173L85.7285 20.7173C85.8942 20.1751 86.0749 19.6178 86.2707 19.0455C86.4816 18.4732 86.6849 17.9009 86.8807 17.3286L92.9802 17.3286L93.5676 19.0455ZM89.569 9.53476C89.7196 9.14319 89.8325 8.83444 89.9078 8.60853C89.9982 8.83444 90.1187 9.14319 90.2693 9.53476C90.4199 9.92634 90.5931 10.3782 90.7889 10.8902C90.9997 11.4023 91.2181 11.9671 91.444 12.5845C91.6699 13.202 91.9034 13.8496 92.1443 14.5274L87.6939 14.5274C87.9349 13.8496 88.1683 13.202 88.3942 12.5845C88.6352 11.9671 88.8536 11.4023 89.0494 10.8902C89.2452 10.3782 89.4184 9.92634 89.569 9.53476Z" fill-rule="evenodd"/>
	</g>
	<defs>
		<clipPath id="clip_9">
			<rect x="-616" y="-1075" width="1440" height="1191" clip-rule="evenodd"/>
		</clipPath>
	</defs>
	<g clip-path="url(#clip_9)">
		<path fill="rgb(37,40,57)" stroke="none" transform="translate(0.951416 0)" d="M110.275 7.50158C109.793 7.99858 109.221 8.64619 108.558 9.4444C107.895 10.2275 107.21 11.086 106.502 12.0198C105.794 12.9535 105.094 13.9174 104.401 14.9114C103.709 15.9054 103.091 16.8542 102.549 17.7579L110.523 17.7579L110.523 20.7173L98.2114 20.7173L98.2114 18.6163C98.6331 17.8482 99.1452 16.9973 99.7476 16.0635C100.365 15.1147 101.005 14.1659 101.668 13.2171C102.33 12.2532 103.001 11.327 103.678 10.4384C104.371 9.53476 105.011 8.72902 105.599 8.02117L98.5728 8.02117L98.5728 5.06176L110.275 5.06176L110.275 7.50158L110.275 7.50158Z"/>
	</g>
	<defs>
		<clipPath id="clip_10">
			<rect x="-616" y="-1075" width="1440" height="1191" clip-rule="evenodd"/>
		</clipPath>
	</defs>
	<g clip-path="url(#clip_10)">
		<path fill="rgb(37,40,57)" stroke="none" transform="translate(0.951416 0)" d="M111.761 20.7173L111.761 5.06176L122.334 5.06176L122.334 8.02117L115.286 8.02117L115.286 11.0935L121.543 11.0935L121.543 13.9852L115.286 13.9852L115.286 17.7579L122.853 17.7579L122.853 20.7173L111.761 20.7173L111.761 20.7173Z"/>
	</g>
	<defs>
		<clipPath id="clip_11">
			<rect x="-616" y="-1075" width="1440" height="1191" clip-rule="evenodd"/>
		</clipPath>
	</defs>
	<g clip-path="url(#clip_11)">
		<path fill="rgb(37,40,57)" stroke="none" transform="translate(0.951416 0)" d="M135.818 5.06176L135.818 8.06635L131.097 8.06635L131.097 20.7173L127.572 20.7173L127.572 8.06635L122.851 8.06635L122.851 5.06176L135.818 5.06176L135.818 5.06176Z"/>
	</g>
	<defs>
		<clipPath id="clip_12">
			<rect x="-616" y="-1075" width="1440" height="1191" clip-rule="evenodd"/>
		</clipPath>
	</defs>
	<g clip-path="url(#clip_12)">
		<path fill="rgb(37,40,57)" stroke="none" transform="translate(0.951416 0)" d="M136.828 20.7173L136.828 5.06176L147.401 5.06176L147.401 8.02117L140.352 8.02117L140.352 11.0935L146.61 11.0935L146.61 13.9852L140.352 13.9852L140.352 17.7579L147.92 17.7579L147.92 20.7173L136.828 20.7173L136.828 20.7173Z"/>
	</g>
	<defs>
		<clipPath id="clip_13">
			<rect x="-616" y="-1075" width="1440" height="1191" clip-rule="evenodd"/>
		</clipPath>
	</defs>
	<g clip-path="url(#clip_13)">
		<path fill="rgb(37,40,57)" stroke="none" transform="translate(0.951416 0)" d="M165.057 5.06176L165.057 8.06635L160.335 8.06635L160.335 20.7173L156.811 20.7173L156.811 8.06635L152.09 8.06635L152.09 5.06176L165.057 5.06176L165.057 5.06176Z"/>
	</g>
	<defs>
		<clipPath id="clip_14">
			<rect x="-616" y="-1075" width="1440" height="1191" clip-rule="evenodd"/>
		</clipPath>
	</defs>
	<g clip-path="url(#clip_14)">
		<path fill="rgb(37,40,57)" stroke="none" transform="translate(0.951416 0)" d="M174.131 19.0455C174.342 19.6178 174.53 20.1751 174.696 20.7173L178.468 20.7173C177.881 19.0305 177.324 17.4717 176.797 16.0409C176.27 14.6102 175.75 13.2623 175.238 11.9972C174.741 10.7321 174.244 9.53476 173.747 8.40522C173.25 7.26061 172.745 6.14612 172.233 5.06176L168.867 5.06176C168.34 6.14612 167.828 7.26061 167.331 8.40522C166.849 9.53476 166.352 10.7321 165.84 11.9972C165.343 13.2623 164.831 14.6102 164.304 16.0409C163.777 17.4717 163.22 19.0305 162.632 20.7173L166.292 20.7173C166.458 20.1751 166.638 19.6178 166.834 19.0455C167.045 18.4732 167.248 17.9009 167.444 17.3286L173.544 17.3286C173.739 17.9009 173.935 18.4732 174.131 19.0455ZM170.132 9.53476C170.283 9.14319 170.396 8.83444 170.471 8.60853C170.562 8.83444 170.682 9.14319 170.833 9.53476C170.983 9.92634 171.157 10.3782 171.352 10.8902C171.563 11.4023 171.782 11.9671 172.007 12.5845C172.233 13.202 172.467 13.8496 172.708 14.5274L168.257 14.5274C168.498 13.8496 168.732 13.202 168.958 12.5845C169.199 11.9671 169.417 11.4023 169.613 10.8902C169.809 10.3782 169.982 9.92634 170.132 9.53476Z" fill-rule="evenodd"/>
	</g>
	<defs>
		<clipPath id="clip_15">
			<rect x="-616" y="-1075" width="1440" height="1191" clip-rule="evenodd"/>
		</clipPath>
	</defs>
	<g clip-path="url(#clip_15)">
		<path fill="rgb(37,40,57)" stroke="none" transform="translate(0.951416 0)" d="M188.48 20.7173C188.163 20.2052 187.787 19.6555 187.35 19.0681C186.928 18.4657 186.461 17.8708 185.949 17.2834C185.452 16.681 184.933 16.1087 184.391 15.5665C183.848 15.0093 183.306 14.5198 182.764 14.0981L182.764 20.7173L179.24 20.7173L179.24 5.06176L182.764 5.06176L182.764 10.9806C183.683 10.0167 184.601 9.01517 185.52 7.97599C186.454 6.92175 187.32 5.95034 188.118 5.06176L192.297 5.06176C191.228 6.32685 190.151 7.54676 189.067 8.72149C187.998 9.89622 186.868 11.0785 185.678 12.2683C186.928 13.3074 188.133 14.5424 189.293 15.9732C190.468 17.4039 191.59 18.9853 192.659 20.7173L188.48 20.7173L188.48 20.7173Z"/>
	</g>
	<defs>
		<clipPath id="clip_16">
			<rect x="-616" y="-1075" width="1440" height="1191" clip-rule="evenodd"/>
		</clipPath>
	</defs>
	<g clip-path="url(#clip_16)">
		<path fill="rgb(37,40,57)" stroke="none" transform="translate(0.951416 0)" d="M193.902 3.07376C194.264 3.39003 194.685 3.54817 195.167 3.54817C195.649 3.54817 196.063 3.39003 196.41 3.07376C196.771 2.75749 196.952 2.32826 196.952 1.78608C196.952 1.2439 196.771 0.81467 196.41 0.498397C196.063 0.182123 195.649 0.0239868 195.167 0.0239868C194.685 0.0239868 194.264 0.182123 193.902 0.498397C193.556 0.81467 193.383 1.2439 193.383 1.78608C193.383 2.32826 193.556 2.75749 193.902 3.07376ZM196.952 5.06176L193.428 5.06176L193.428 20.7173L196.952 20.7173L196.952 5.06176Z" fill-rule="evenodd"/>
	</g>
	<defs>
		<clipPath id="clip_17">
			<rect x="-616" y="-1075" width="1440" height="1191" clip-rule="evenodd"/>
		</clipPath>
	</defs>
	<g clip-path="url(#clip_17)">
		<path fill="rgb(37,40,57)" stroke="none" transform="translate(0.951416 0)" d="M209.396 6.12353C208.146 5.2952 206.354 4.88103 204.02 4.88103C203.372 4.88103 202.619 4.91116 201.761 4.9714C200.902 5.03164 200.089 5.13706 199.321 5.28767L199.321 20.7173L202.845 20.7173L202.845 15.4762L203.952 15.4762C206.301 15.4762 208.109 15.062 209.374 14.2337C210.639 13.3903 211.271 12.0273 211.271 10.1447Q211.271 7.34345 209.396 6.12353ZM203.477 7.90822C203.733 7.89316 203.99 7.88563 204.246 7.88563C204.758 7.88563 205.224 7.92328 205.646 7.99858C206.068 8.05882 206.422 8.17931 206.708 8.36003C207.009 8.5257 207.235 8.75161 207.386 9.03776C207.551 9.32391 207.634 9.68537 207.634 10.1221C207.634 11.0258 207.325 11.6432 206.708 11.9746C206.09 12.3059 205.172 12.4716 203.952 12.4716L202.845 12.4716L202.845 7.9534C203.026 7.93834 203.236 7.92328 203.477 7.90822Z" fill-rule="evenodd"/>
	</g>
	<defs>
		<clipPath id="clip_18">
			<rect x="-616" y="-1075" width="1440" height="1191" clip-rule="evenodd"/>
		</clipPath>
	</defs>
	<g clip-path="url(#clip_18)">
		<path fill="rgb(37,40,57)" stroke="none" transform="translate(0.951416 0)" d="M45.9447 35.6624L47.4056 35.6624L47.4056 40.542C47.2851 40.5822 47.1094 40.6274 46.8785 40.6776C46.6576 40.7278 46.3966 40.778 46.0954 40.8282C45.8042 40.8784 45.4829 40.9186 45.1315 40.9487C44.7801 40.9888 44.4236 41.0089 44.0622 41.0089C43.3292 41.0089 42.6615 40.8884 42.0591 40.6475C41.4567 40.4065 40.9396 40.0551 40.5079 39.5932C40.0761 39.1314 39.7398 38.5641 39.4988 37.8914C39.2679 37.2187 39.1524 36.4456 39.1524 35.572C39.1524 34.6985 39.2829 33.9254 39.544 33.2527C39.8151 32.57 40.1765 31.9977 40.6284 31.5358C41.0802 31.0739 41.6073 30.7225 42.2097 30.4816C42.8222 30.2406 43.4748 30.1201 44.1676 30.1201C44.6395 30.1201 45.0562 30.1502 45.4176 30.2105C45.7891 30.2707 46.1054 30.341 46.3664 30.4213C46.6275 30.5016 46.8383 30.582 46.999 30.6623C47.1697 30.7426 47.2851 30.8029 47.3454 30.843L46.8785 32.0629C46.5873 31.8722 46.2008 31.7165 45.7188 31.596C45.2369 31.4655 44.7449 31.4003 44.2429 31.4003C43.7108 31.4003 43.2238 31.4956 42.782 31.6864C42.3503 31.8772 41.9788 32.1533 41.6675 32.5147C41.3663 32.8762 41.1304 33.318 40.9597 33.8401C40.789 34.3521 40.7037 34.9295 40.7037 35.572C40.7037 36.1945 40.7739 36.7618 40.9145 37.2739C41.0651 37.786 41.286 38.2277 41.5772 38.5992C41.8784 38.9607 42.2449 39.2418 42.6766 39.4426C43.1184 39.6434 43.6355 39.7438 44.2278 39.7438C44.6495 39.7438 45.006 39.7237 45.2971 39.6836C45.5984 39.6334 45.8142 39.5882 45.9447 39.548L45.9447 35.6624L45.9447 35.6624Z"/>
	</g>
	<defs>
		<clipPath id="clip_19">
			<rect x="-616" y="-1075" width="1440" height="1191" clip-rule="evenodd"/>
		</clipPath>
	</defs>
	<g clip-path="url(#clip_19)">
		<path fill="rgb(37,40,57)" stroke="none" transform="translate(0.951416 0)" d="M54.6579 29.1713C54.427 29.1713 54.2212 29.091 54.0405 28.9303C53.8698 28.7596 53.7844 28.5438 53.7844 28.2827C53.7844 28.0217 53.8698 27.8108 54.0405 27.6502C54.2212 27.4795 54.427 27.3941 54.6579 27.3941C54.8889 27.3941 55.0897 27.4795 55.2604 27.6502C55.4411 27.8108 55.5315 28.0217 55.5315 28.2827C55.5315 28.5438 55.4411 28.7596 55.2604 28.9303C55.0897 29.091 54.8889 29.1713 54.6579 29.1713ZM56.902 28.9303C57.0827 29.091 57.2885 29.1713 57.5195 29.1713C57.7504 29.1713 57.9512 29.091 58.1219 28.9303C58.3026 28.7596 58.393 28.5438 58.393 28.2827C58.393 28.0217 58.3026 27.8108 58.1219 27.6502C57.9512 27.4795 57.7504 27.3941 57.5195 27.3941C57.2885 27.3941 57.0827 27.4795 56.902 27.6502C56.7313 27.8108 56.6459 28.0217 56.6459 28.2827C56.6459 28.5438 56.7313 28.7596 56.902 28.9303ZM56.0887 41.024C55.4059 41.024 54.8136 40.9186 54.3115 40.7077C53.8095 40.4969 53.3979 40.2107 53.0766 39.8493C52.7553 39.4778 52.5143 39.041 52.3537 38.539C52.2031 38.037 52.1278 37.4948 52.1278 36.9124L52.1278 30.3611L53.5886 30.3611L53.5886 36.7468C53.5886 37.791 53.8196 38.549 54.2814 39.0209C54.7433 39.4928 55.3457 39.7288 56.0887 39.7288C56.4602 39.7288 56.7965 39.6735 57.0978 39.5631C57.409 39.4426 57.6751 39.2619 57.896 39.0209C58.1169 38.78 58.2875 38.4737 58.408 38.1022C58.5285 37.7207 58.5888 37.2689 58.5888 36.7468L58.5888 30.3611L60.0496 30.3611L60.0496 36.9124C60.0496 37.4948 59.9693 38.037 59.8087 38.539C59.6581 39.041 59.4171 39.4778 59.0858 39.8493C58.7645 40.2107 58.3528 40.4969 57.8508 40.7077C57.3588 40.9186 56.7714 41.024 56.0887 41.024Z" fill-rule="evenodd"/>
	</g>
	<defs>
		<clipPath id="clip_20">
			<rect x="-616" y="-1075" width="1440" height="1191" clip-rule="evenodd"/>
		</clipPath>
	</defs>
	<g clip-path="url(#clip_20)">
		<path fill="rgb(37,40,57)" stroke="none" transform="translate(0.951416 0)" d="M72.2358 40.7981C72.0149 40.4266 71.7589 40.0099 71.4677 39.548C71.1866 39.0862 70.8804 38.6093 70.549 38.1173C70.2177 37.6153 69.8713 37.1082 69.5099 36.5962C69.1584 36.0841 68.807 35.5921 68.4556 35.1202C68.1042 34.6383 67.7628 34.1865 67.4315 33.7648C67.1002 33.3431 66.7939 32.9716 66.5128 32.6503L66.5128 40.7981L65.082 40.7981L65.082 30.3611L66.2417 30.3611C66.7136 30.8631 67.2156 31.4505 67.7478 32.1232C68.2899 32.7858 68.8221 33.4736 69.3442 34.1865C69.8763 34.8893 70.3733 35.5821 70.8352 36.2648C71.3071 36.9476 71.7037 37.555 72.025 38.0872L72.025 30.3611L73.4557 30.3611L73.4557 40.7981L72.2358 40.7981L72.2358 40.7981Z"/>
	</g>
	<defs>
		<clipPath id="clip_21">
			<rect x="-616" y="-1075" width="1440" height="1191" clip-rule="evenodd"/>
		</clipPath>
	</defs>
	<g clip-path="url(#clip_21)">
		<path fill="rgb(37,40,57)" stroke="none" transform="translate(0.951416 0)" d="M83.0374 41.024C82.3044 41.024 81.6367 40.9035 81.0343 40.6625C80.4319 40.4216 79.9148 40.0701 79.4831 39.6083C79.0513 39.1464 78.715 38.5791 78.474 37.9064C78.2431 37.2237 78.1276 36.4456 78.1276 35.572C78.1276 34.6985 78.2581 33.9254 78.5192 33.2527C78.7903 32.57 79.1517 31.9977 79.6036 31.5358C80.0554 31.0739 80.5825 30.7225 81.1849 30.4816C81.7874 30.2406 82.4299 30.1201 83.1127 30.1201C83.5444 30.1201 83.931 30.1502 84.2724 30.2105C84.6238 30.2707 84.925 30.341 85.176 30.4213C85.437 30.5016 85.6479 30.582 85.8085 30.6623C85.9692 30.7426 86.0796 30.8029 86.1399 30.843L85.7182 32.0479C85.6278 31.9876 85.4973 31.9224 85.3266 31.8521C85.1559 31.7818 84.9601 31.7115 84.7392 31.6412C84.5284 31.5709 84.2924 31.5157 84.0314 31.4756C83.7804 31.4254 83.5243 31.4003 83.2633 31.4003C82.7111 31.4003 82.2141 31.4956 81.7723 31.6864C81.3305 31.8772 80.954 32.1533 80.6427 32.5147C80.3315 32.8762 80.0905 33.318 79.9198 33.8401C79.7592 34.3521 79.6789 34.9295 79.6789 35.572C79.6789 36.1945 79.7491 36.7618 79.8897 37.2739C80.0403 37.786 80.2612 38.2277 80.5524 38.5992C80.8436 38.9607 81.205 39.2418 81.6367 39.4426C82.0785 39.6434 82.5906 39.7438 83.1729 39.7438C83.8456 39.7438 84.4029 39.6735 84.8447 39.533C85.2864 39.3924 85.6178 39.2669 85.8387 39.1565L86.2152 40.3613C86.1449 40.4115 86.0194 40.4768 85.8387 40.5571C85.6579 40.6274 85.432 40.6977 85.1609 40.768C84.8898 40.8382 84.5736 40.8985 84.2121 40.9487C83.8506 40.9989 83.4591 41.024 83.0374 41.024L83.0374 41.024Z"/>
	</g>
	<defs>
		<clipPath id="clip_22">
			<rect x="-616" y="-1075" width="1440" height="1191" clip-rule="evenodd"/>
		</clipPath>
	</defs>
	<g clip-path="url(#clip_22)">
		<path fill="rgb(37,40,57)" stroke="none" transform="translate(0.951416 0)" d="M90.3988 40.7981L90.3988 30.3611L96.7694 30.3611L96.7694 31.6111L91.8596 31.6111L91.8596 34.7136L96.2272 34.7136L96.2272 35.9335L91.8596 35.9335L91.8596 39.548L97.1459 39.548L97.1459 40.7981L90.3988 40.7981L90.3988 40.7981Z"/>
	</g>
	<defs>
		<clipPath id="clip_23">
			<rect x="-616" y="-1075" width="1440" height="1191" clip-rule="evenodd"/>
		</clipPath>
	</defs>
	<g clip-path="url(#clip_23)">
		<path fill="rgb(37,40,57)" stroke="none" transform="translate(0.951416 0)" d="M107.793 39.533L107.793 40.7981L101.513 40.7981L101.513 30.3611L102.974 30.3611L102.974 39.533L107.793 39.533L107.793 39.533Z"/>
	</g>
	<defs>
		<clipPath id="clip_24">
			<rect x="-616" y="-1075" width="1440" height="1191" clip-rule="evenodd"/>
		</clipPath>
	</defs>
	<g clip-path="url(#clip_24)">
		<path fill="rgb(37,40,57)" stroke="none" transform="translate(0.951416 0)" d="M125.555 30.3611C125.243 30.7024 124.892 31.084 124.5 31.5057C124.109 31.9173 123.697 32.3441 123.265 32.7858C122.844 33.2176 122.422 33.6443 122 34.066C121.579 34.4877 121.182 34.8793 120.81 35.2407C121.242 35.5419 121.699 35.9134 122.181 36.3552C122.663 36.797 123.135 37.2689 123.597 37.7709C124.059 38.2729 124.49 38.785 124.892 39.3071C125.304 39.8292 125.645 40.3262 125.916 40.7981L124.199 40.7981C123.898 40.3262 123.552 39.8543 123.16 39.3824C122.768 38.9004 122.352 38.4436 121.91 38.0119C121.478 37.5701 121.036 37.1634 120.585 36.792C120.143 36.4205 119.711 36.1042 119.289 35.8431L119.289 40.7981L117.828 40.7981L117.828 30.3611L119.289 30.3611L119.289 34.9696C119.641 34.6383 120.027 34.2668 120.449 33.8551C120.871 33.4334 121.287 33.0117 121.699 32.59C122.111 32.1683 122.497 31.7667 122.859 31.3852C123.23 30.9936 123.541 30.6522 123.792 30.3611L125.555 30.3611L125.555 30.3611Z"/>
	</g>
	<defs>
		<clipPath id="clip_25">
			<rect x="-616" y="-1075" width="1440" height="1191" clip-rule="evenodd"/>
		</clipPath>
	</defs>
	<g clip-path="url(#clip_25)">
		<path fill="rgb(37,40,57)" stroke="none" transform="translate(0.951416 0)" d="M136.816 39.4727C136.967 39.9045 137.127 40.3463 137.298 40.7981L138.895 40.7981C138.493 39.6936 138.116 38.6745 137.765 37.7408C137.414 36.797 137.067 35.9034 136.726 35.06C136.394 34.2166 136.063 33.4134 135.732 32.6503C135.4 31.8772 135.054 31.1141 134.693 30.3611L133.352 30.3611C132.991 31.1141 132.644 31.8772 132.313 32.6503C131.982 33.4134 131.645 34.2166 131.304 35.06C130.973 35.9034 130.631 36.797 130.28 37.7408C129.928 38.6745 129.552 39.6936 129.15 40.7981L130.671 40.7981L131.62 38.1323L136.349 38.1323C136.51 38.5842 136.666 39.031 136.816 39.4727ZM134.964 34.3973C135.285 35.2106 135.606 36.054 135.928 36.9275L132.042 36.9275C132.353 36.054 132.664 35.2106 132.976 34.3973C133.297 33.574 133.633 32.7858 133.985 32.0328C134.326 32.7858 134.652 33.574 134.964 34.3973Z" fill-rule="evenodd"/>
	</g>
	<defs>
		<clipPath id="clip_26">
			<rect x="-616" y="-1075" width="1440" height="1191" clip-rule="evenodd"/>
		</clipPath>
	</defs>
	<g clip-path="url(#clip_26)">
		<path fill="rgb(37,40,57)" stroke="none" transform="translate(0.951416 0)" d="M149.102 39.533L149.102 40.7981L142.822 40.7981L142.822 30.3611L144.283 30.3611L144.283 39.533L149.102 39.533L149.102 39.533Z"/>
	</g>
	<defs>
		<clipPath id="clip_27">
			<rect x="-616" y="-1075" width="1440" height="1191" clip-rule="evenodd"/>
		</clipPath>
	</defs>
	<g clip-path="url(#clip_27)">
		<path fill="rgb(37,40,57)" stroke="none" transform="translate(0.951416 0)" d="M153.141 30.3611L154.602 30.3611L154.602 40.7981L153.141 40.7981L153.141 30.3611L153.141 30.3611Z"/>
	</g>
	<defs>
		<clipPath id="clip_28">
			<rect x="-616" y="-1075" width="1440" height="1191" clip-rule="evenodd"/>
		</clipPath>
	</defs>
	<g clip-path="url(#clip_28)">
		<path fill="rgb(37,40,57)" stroke="none" transform="translate(0.951416 0)" d="M166.85 40.7981C166.629 40.4266 166.373 40.0099 166.082 39.548C165.801 39.0862 165.495 38.6093 165.163 38.1173C164.832 37.6153 164.485 37.1082 164.124 36.5962C163.773 36.0841 163.421 35.5921 163.07 35.1202C162.718 34.6383 162.377 34.1865 162.046 33.7648C161.714 33.3431 161.408 32.9716 161.127 32.6503L161.127 40.7981L159.696 40.7981L159.696 30.3611L160.856 30.3611C161.328 30.8631 161.83 31.4505 162.362 32.1232C162.904 32.7858 163.436 33.4736 163.958 34.1865C164.49 34.8893 164.987 35.5821 165.449 36.2648C165.921 36.9476 166.318 37.555 166.639 38.0872L166.639 30.3611L168.07 30.3611L168.07 40.7981L166.85 40.7981L166.85 40.7981Z"/>
	</g>

</svg>